<?xml version="1.0" encoding="utf-8"?>
<!-- Generator: Adobe Illustrator 17.0.0, SVG Export Plug-In . SVG Version: 6.00 Build 0)  -->
<!DOCTYPE svg PUBLIC "-//W3C//DTD SVG 1.1//EN" "http://www.w3.org/Graphics/SVG/1.1/DTD/svg11.dtd">
<svg version="1.1" id="Layer_1" xmlns="http://www.w3.org/2000/svg" xmlns:xlink="http://www.w3.org/1999/xlink" x="0px" y="0px"
	 width="261.487px" height="80px" viewBox="0 0 261.487 80" enable-background="new 0 0 261.487 80" xml:space="preserve">
<g>
	<g>
		<path fill="#002060" d="M23.876,69.297c0,2.738-2.21,4.958-4.935,4.958h-6.557c-2.726,0-4.935-2.22-4.935-4.958V8.038
			c0-2.738,2.21-4.958,4.935-4.958h6.557c2.726,0,4.935,2.22,4.935,4.958V69.297z"/>
	</g>
	<g>
		<path fill="#002060" d="M35.029,72.936c0,0.728-0.588,1.318-1.313,1.318h-1.744c-0.725,0-1.313-0.59-1.313-1.318V56.646
			c0-0.728,0.588-1.318,1.313-1.318h1.744c0.725,0,1.313,0.59,1.313,1.318V72.936z"/>
	</g>
	<g>
		<path fill="#002060" d="M43.693,72.936c0,0.728-0.588,1.318-1.313,1.318h-1.744c-0.725,0-1.313-0.59-1.313-1.318V56.646
			c0-0.728,0.588-1.318,1.313-1.318h1.744c0.725,0,1.313,0.59,1.313,1.318V72.936z"/>
	</g>
	<g>
		<path fill="#002060" d="M65.994,69.297c0,2.738-2.21,4.958-4.935,4.958h-6.557c-2.726,0-4.935-2.22-4.935-4.958V8.038
			c0-2.738,2.21-4.958,4.935-4.958h6.557c2.726,0,4.935,2.22,4.935,4.958V69.297z"/>
	</g>
	<g>
		<path fill="#00B0F0" d="M28.426,29.822h19.324c10.053-0.566,18.169-3.192,18.169-13.86v10.581c0,12.36-8.693,21.2-20.848,21.2
			H25.88c0-0.003,0-0.005,0-0.008c-10.115,0.55-18.302,3.152-18.302,13.867v-10.58C7.578,38.662,16.271,29.822,28.426,29.822z"/>
	</g>
	<g>
		<path fill="#002060" d="M84.266,72.496l-3.754-9.809h-0.061c0.07,0.777,0.105,1.7,0.105,2.771v7.038H79.37V61.432h1.938
			l3.504,9.127h0.061l3.534-9.127h1.923v11.064h-1.287v-7.129c0-0.817,0.035-1.706,0.106-2.664h-0.061l-3.784,9.793H84.266z"/>
		<path fill="#002060" d="M98.507,72.496l-0.249-1.181h-0.061c-0.414,0.52-0.826,0.872-1.237,1.056
			c-0.412,0.185-0.925,0.276-1.541,0.276c-0.822,0-1.467-0.212-1.934-0.636s-0.7-1.026-0.7-1.809c0-1.676,1.34-2.554,4.02-2.634
			l1.407-0.046v-0.515c0-0.65-0.14-1.131-0.42-1.441s-0.728-0.466-1.344-0.466c-0.69,0-1.473,0.212-2.346,0.636l-0.386-0.961
			c0.408-0.222,0.856-0.396,1.343-0.522c0.487-0.126,0.976-0.188,1.465-0.188c0.989,0,1.722,0.219,2.198,0.658
			c0.478,0.438,0.716,1.143,0.716,2.111v5.661H98.507z M95.669,71.61c0.782,0,1.396-0.214,1.843-0.643
			c0.447-0.43,0.67-1.029,0.67-1.802v-0.749l-1.256,0.053c-0.999,0.035-1.72,0.19-2.161,0.466c-0.441,0.274-0.662,0.702-0.662,1.282
			c0,0.454,0.138,0.8,0.412,1.037C94.79,71.492,95.175,71.61,95.669,71.61z"/>
		<path fill="#002060" d="M103.5,68.25c0.217-0.308,0.548-0.711,0.991-1.211l2.68-2.838h1.49l-3.36,3.534l3.596,4.761h-1.521
			l-2.929-3.92l-0.946,0.817v3.103h-1.241V60.72h1.241v6.244c0,0.277-0.021,0.706-0.061,1.286H103.5z"/>
		<path fill="#002060" d="M110.521,61.953c0-0.287,0.071-0.498,0.212-0.632c0.142-0.134,0.318-0.2,0.53-0.2
			c0.202,0,0.376,0.068,0.522,0.204c0.146,0.137,0.219,0.346,0.219,0.628c0,0.283-0.072,0.493-0.219,0.632
			c-0.146,0.14-0.32,0.209-0.522,0.209c-0.212,0-0.389-0.069-0.53-0.209C110.592,62.446,110.521,62.236,110.521,61.953z
			 M111.883,72.496h-1.256v-8.295h1.256V72.496z"/>
		<path fill="#002060" d="M120.456,72.496V67.13c0-0.676-0.153-1.181-0.461-1.514s-0.79-0.499-1.446-0.499
			c-0.867,0-1.503,0.234-1.907,0.704c-0.403,0.469-0.605,1.243-0.605,2.323v4.352h-1.256v-8.295h1.021l0.204,1.136h0.061
			c0.258-0.409,0.618-0.726,1.083-0.95c0.464-0.225,0.981-0.337,1.551-0.337c0.999,0,1.751,0.241,2.256,0.723
			c0.505,0.482,0.757,1.253,0.757,2.313v5.411H120.456z"/>
		<path fill="#002060" d="M131.316,64.201v0.795l-1.537,0.182c0.142,0.177,0.268,0.407,0.379,0.692s0.166,0.606,0.166,0.965
			c0,0.813-0.277,1.461-0.832,1.945s-1.317,0.727-2.286,0.727c-0.247,0-0.479-0.021-0.696-0.061
			c-0.534,0.282-0.802,0.638-0.802,1.067c0,0.227,0.094,0.395,0.28,0.503s0.507,0.163,0.961,0.163h1.468
			c0.898,0,1.589,0.188,2.07,0.567c0.481,0.378,0.723,0.928,0.723,1.649c0,0.919-0.368,1.618-1.104,2.101
			c-0.737,0.481-1.812,0.723-3.225,0.723c-1.085,0-1.921-0.202-2.509-0.605s-0.882-0.974-0.882-1.711
			c0-0.504,0.162-0.94,0.484-1.309c0.323-0.368,0.777-0.618,1.362-0.749c-0.212-0.097-0.39-0.245-0.533-0.447
			c-0.144-0.201-0.216-0.437-0.216-0.703c0-0.303,0.081-0.568,0.242-0.795c0.161-0.228,0.416-0.446,0.765-0.658
			c-0.429-0.177-0.778-0.478-1.049-0.901c-0.27-0.424-0.404-0.908-0.404-1.453c0-0.908,0.272-1.608,0.817-2.1
			c0.545-0.492,1.316-0.738,2.315-0.738c0.435,0,0.825,0.051,1.173,0.151H131.316z M124.701,73.889c0,0.449,0.189,0.79,0.567,1.021
			c0.379,0.232,0.921,0.349,1.628,0.349c1.055,0,1.835-0.158,2.342-0.474c0.508-0.315,0.761-0.742,0.761-1.282
			c0-0.449-0.139-0.761-0.416-0.935c-0.277-0.175-0.8-0.262-1.566-0.262h-1.507c-0.569,0-1.014,0.137-1.332,0.409
			C124.86,72.988,124.701,73.379,124.701,73.889z M125.382,66.857c0,0.58,0.164,1.02,0.491,1.317
			c0.328,0.298,0.785,0.446,1.37,0.446c1.227,0,1.839-0.596,1.839-1.786c0-1.246-0.62-1.869-1.861-1.869
			c-0.591,0-1.045,0.159-1.362,0.477C125.54,65.761,125.382,66.232,125.382,66.857z"/>
		<path fill="#002060" d="M140.514,66.964l2.951-5.532h1.393l-3.693,6.773v4.291h-1.302v-4.23l-3.686-6.834h1.407L140.514,66.964z"
			/>
		<path fill="#002060" d="M156.215,66.948c0,1.771-0.447,3.164-1.343,4.178c-0.896,1.015-2.141,1.521-3.735,1.521
			c-1.63,0-2.887-0.498-3.772-1.495c-0.886-0.996-1.328-2.402-1.328-4.219c0-1.802,0.443-3.198,1.332-4.189
			c0.888-0.991,2.149-1.487,3.784-1.487c1.589,0,2.83,0.505,3.724,1.514C155.769,63.78,156.215,65.173,156.215,66.948z
			 M147.399,66.948c0,1.499,0.318,2.636,0.957,3.41s1.565,1.161,2.781,1.161c1.227,0,2.152-0.386,2.777-1.157
			c0.626-0.772,0.938-1.91,0.938-3.414c0-1.488-0.312-2.617-0.935-3.387s-1.545-1.154-2.766-1.154c-1.227,0-2.158,0.388-2.797,1.162
			S147.399,65.47,147.399,66.948z"/>
		<path fill="#002060" d="M167.272,61.432v7.159c0,1.262-0.381,2.253-1.144,2.975c-0.762,0.722-1.809,1.082-3.141,1.082
			s-2.362-0.363-3.092-1.09c-0.729-0.727-1.094-1.726-1.094-2.997v-7.129h1.287v7.22c0,0.924,0.252,1.632,0.757,2.127
			c0.505,0.494,1.246,0.741,2.225,0.741c0.934,0,1.653-0.248,2.157-0.745c0.505-0.497,0.757-1.21,0.757-2.138v-7.205H167.272z"/>
		<path fill="#002060" d="M180.935,69.552c0,0.974-0.353,1.733-1.06,2.278c-0.706,0.545-1.665,0.817-2.876,0.817
			c-1.312,0-2.32-0.169-3.027-0.507v-1.241c0.454,0.191,0.949,0.343,1.483,0.454c0.535,0.11,1.065,0.166,1.59,0.166
			c0.857,0,1.504-0.162,1.938-0.488c0.434-0.325,0.65-0.778,0.65-1.358c0-0.383-0.076-0.697-0.23-0.942
			c-0.154-0.244-0.411-0.47-0.771-0.677c-0.361-0.207-0.91-0.441-1.646-0.704c-1.029-0.368-1.765-0.805-2.206-1.31
			c-0.441-0.504-0.662-1.163-0.662-1.975c0-0.854,0.32-1.531,0.961-2.036s1.488-0.757,2.543-0.757c1.1,0,2.111,0.202,3.035,0.605
			l-0.401,1.12c-0.913-0.384-1.802-0.575-2.664-0.575c-0.682,0-1.214,0.146-1.597,0.438c-0.384,0.293-0.575,0.699-0.575,1.219
			c0,0.384,0.07,0.697,0.212,0.942c0.141,0.245,0.379,0.469,0.715,0.674c0.336,0.204,0.849,0.43,1.54,0.677
			c1.161,0.414,1.959,0.858,2.396,1.332C180.717,68.18,180.935,68.795,180.935,69.552z"/>
		<path fill="#002060" d="M184.422,64.201v5.381c0,0.677,0.154,1.181,0.462,1.514s0.789,0.5,1.445,0.5
			c0.868,0,1.502-0.237,1.903-0.712c0.401-0.474,0.602-1.248,0.602-2.323v-4.359h1.257v8.295h-1.037l-0.182-1.112h-0.068
			c-0.257,0.408-0.614,0.722-1.07,0.938c-0.457,0.217-0.978,0.325-1.563,0.325c-1.009,0-1.765-0.239-2.267-0.719
			s-0.753-1.246-0.753-2.301v-5.427H184.422z"/>
		<path fill="#002060" d="M196.302,72.647c-1.2,0-2.13-0.369-2.788-1.108c-0.659-0.739-0.988-1.785-0.988-3.138
			c0-1.388,0.334-2.459,1.003-3.216s1.621-1.136,2.857-1.136c0.398,0,0.797,0.043,1.195,0.129s0.712,0.187,0.938,0.303l-0.386,1.067
			c-0.277-0.111-0.58-0.203-0.908-0.276s-0.618-0.11-0.87-0.11c-1.686,0-2.528,1.075-2.528,3.225c0,1.019,0.206,1.801,0.617,2.346
			s1.021,0.817,1.827,0.817c0.691,0,1.4-0.148,2.127-0.446v1.112C197.844,72.504,197.145,72.647,196.302,72.647z"/>
		<path fill="#002060" d="M203.913,72.647c-1.2,0-2.13-0.369-2.788-1.108c-0.659-0.739-0.988-1.785-0.988-3.138
			c0-1.388,0.334-2.459,1.003-3.216s1.621-1.136,2.857-1.136c0.398,0,0.797,0.043,1.195,0.129s0.712,0.187,0.938,0.303l-0.386,1.067
			c-0.277-0.111-0.58-0.203-0.908-0.276s-0.618-0.11-0.87-0.11c-1.686,0-2.528,1.075-2.528,3.225c0,1.019,0.206,1.801,0.617,2.346
			s1.021,0.817,1.827,0.817c0.691,0,1.4-0.148,2.127-0.446v1.112C205.455,72.504,204.756,72.647,203.913,72.647z"/>
		<path fill="#002060" d="M211.714,72.647c-1.226,0-2.193-0.373-2.902-1.12s-1.063-1.783-1.063-3.11
			c0-1.337,0.329-2.399,0.988-3.187c0.658-0.787,1.542-1.181,2.652-1.181c1.039,0,1.861,0.342,2.467,1.025s0.908,1.586,0.908,2.706
			v0.795h-5.714c0.025,0.974,0.271,1.713,0.738,2.217c0.467,0.505,1.124,0.757,1.972,0.757c0.893,0,1.775-0.187,2.648-0.56v1.12
			c-0.443,0.191-0.864,0.329-1.26,0.412C212.752,72.605,212.275,72.647,211.714,72.647z M211.373,65.102
			c-0.666,0-1.196,0.217-1.593,0.651c-0.396,0.434-0.629,1.034-0.7,1.801h4.337c0-0.792-0.177-1.398-0.53-1.82
			C212.535,65.313,212.03,65.102,211.373,65.102z"/>
		<path fill="#002060" d="M222.49,70.233c0,0.771-0.287,1.367-0.862,1.786s-1.383,0.628-2.422,0.628
			c-1.101,0-1.958-0.174-2.573-0.522V70.96c0.398,0.201,0.826,0.36,1.282,0.477c0.457,0.116,0.897,0.174,1.321,0.174
			c0.655,0,1.16-0.104,1.514-0.313c0.353-0.21,0.529-0.529,0.529-0.958c0-0.322-0.14-0.599-0.42-0.828s-0.826-0.501-1.639-0.813
			c-0.771-0.288-1.32-0.539-1.646-0.754c-0.326-0.214-0.568-0.457-0.727-0.729c-0.159-0.272-0.239-0.599-0.239-0.977
			c0-0.677,0.275-1.21,0.825-1.601c0.55-0.392,1.305-0.587,2.263-0.587c0.894,0,1.767,0.182,2.619,0.545l-0.446,1.021
			c-0.833-0.343-1.587-0.515-2.264-0.515c-0.595,0-1.044,0.094-1.347,0.28s-0.454,0.444-0.454,0.772c0,0.222,0.057,0.411,0.17,0.567
			c0.114,0.156,0.297,0.305,0.549,0.446c0.253,0.142,0.737,0.346,1.453,0.613c0.984,0.358,1.648,0.719,1.994,1.082
			S222.49,69.684,222.49,70.233z"/>
		<path fill="#002060" d="M230.117,70.233c0,0.771-0.287,1.367-0.862,1.786s-1.383,0.628-2.422,0.628
			c-1.101,0-1.958-0.174-2.573-0.522V70.96c0.398,0.201,0.826,0.36,1.282,0.477c0.457,0.116,0.897,0.174,1.321,0.174
			c0.655,0,1.16-0.104,1.514-0.313c0.353-0.21,0.529-0.529,0.529-0.958c0-0.322-0.14-0.599-0.42-0.828s-0.826-0.501-1.639-0.813
			c-0.771-0.288-1.32-0.539-1.646-0.754c-0.326-0.214-0.568-0.457-0.727-0.729c-0.159-0.272-0.239-0.599-0.239-0.977
			c0-0.677,0.275-1.21,0.825-1.601c0.55-0.392,1.305-0.587,2.263-0.587c0.894,0,1.767,0.182,2.619,0.545l-0.446,1.021
			c-0.833-0.343-1.587-0.515-2.264-0.515c-0.595,0-1.044,0.094-1.347,0.28s-0.454,0.444-0.454,0.772c0,0.222,0.057,0.411,0.17,0.567
			c0.114,0.156,0.297,0.305,0.549,0.446c0.253,0.142,0.737,0.346,1.453,0.613c0.984,0.358,1.648,0.719,1.994,1.082
			S230.117,69.684,230.117,70.233z"/>
		<path fill="#002060" d="M236.131,65.178h-2.111v7.318h-1.256v-7.318h-1.483V64.61l1.483-0.454v-0.462
			c0-2.038,0.891-3.058,2.671-3.058c0.439,0,0.954,0.088,1.544,0.265l-0.325,1.007c-0.484-0.156-0.897-0.234-1.241-0.234
			c-0.474,0-0.825,0.157-1.052,0.473c-0.228,0.315-0.341,0.821-0.341,1.518v0.537h2.111V65.178z"/>
		<path fill="#002060" d="M239.058,64.201v5.381c0,0.677,0.154,1.181,0.462,1.514s0.789,0.5,1.445,0.5
			c0.868,0,1.502-0.237,1.903-0.712c0.401-0.474,0.602-1.248,0.602-2.323v-4.359h1.257v8.295h-1.037l-0.182-1.112h-0.068
			c-0.257,0.408-0.614,0.722-1.07,0.938c-0.457,0.217-0.978,0.325-1.563,0.325c-1.009,0-1.765-0.239-2.267-0.719
			s-0.753-1.246-0.753-2.301v-5.427H239.058z"/>
		<path fill="#002060" d="M248.879,72.496h-1.256V60.72h1.256V72.496z"/>
	</g>
	<g>
		<rect x="78.599" y="56.291" fill="#002060" width="172.813" height="1"/>
	</g>
	<g>
		<g>
			<path fill="#002060" d="M77.848,49.491V26.592h3.984v22.899H77.848z M96.199,49.491v-9.912H84.717v-3.545h11.481v-9.442h3.984
				v22.899H96.199z"/>
		</g>
		<g>
			<path fill="#002060" d="M127.913,49.397l-3.419-5.663h-10.791l1.882-3.187h6.995l-5.082-8.416l-10.352,17.266h-4.549
				l13.112-21.536c0.23-0.392,0.502-0.701,0.816-0.928c0.314-0.227,0.69-0.341,1.129-0.341c0.439,0,0.81,0.114,1.114,0.341
				c0.303,0.227,0.57,0.536,0.8,0.928l13.144,21.536H127.913z"/>
		</g>
		<g>
			<path fill="#002060" d="M135.159,49.397v-3.984h17.096c1.067,0,1.887-0.272,2.463-0.816c0.575-0.544,0.863-1.265,0.863-2.165
				c0-0.983-0.288-1.72-0.863-2.211c-0.576-0.491-1.396-0.737-2.463-0.737h-10.477c-1.067,0-2.034-0.162-2.902-0.486
				c-0.868-0.324-1.6-0.774-2.196-1.349c-0.596-0.575-1.056-1.26-1.38-2.055c-0.324-0.794-0.486-1.662-0.486-2.604
				c0-0.92,0.152-1.772,0.455-2.557c0.303-0.784,0.753-1.458,1.349-2.023c0.596-0.564,1.333-1.009,2.212-1.333
				c0.878-0.324,1.882-0.486,3.011-0.486h16.375v3.984h-16.375c-0.92,0-1.631,0.246-2.133,0.737
				c-0.502,0.492-0.753,1.177-0.753,2.055c0,0.878,0.256,1.558,0.768,2.039c0.512,0.482,1.208,0.722,2.086,0.722h10.446
				c2.321,0,4.083,0.544,5.286,1.631c1.202,1.088,1.804,2.74,1.804,4.956c0,0.962-0.146,1.851-0.439,2.667
				c-0.293,0.815-0.732,1.521-1.317,2.117c-0.586,0.596-1.323,1.061-2.212,1.396c-0.889,0.335-1.929,0.502-3.121,0.502H135.159z"/>
		</g>
		<g>
			<path fill="#002060" d="M190.275,49.397l-4.36-16.03l-6.462,14.838c-0.231,0.481-0.507,0.852-0.832,1.113
				c-0.324,0.262-0.727,0.392-1.207,0.392c-0.941,0-1.621-0.502-2.039-1.506l-6.43-14.838l-4.36,16.03h-3.921l5.866-21.456
				c0.271-1.087,0.93-1.631,1.976-1.631c0.418,0,0.81,0.116,1.177,0.345c0.366,0.23,0.643,0.564,0.831,1.004l7.027,16.123
				l7.027-16.123c0.376-0.899,1.014-1.349,1.914-1.349c0.961,0,1.6,0.544,1.913,1.631l5.835,21.456H190.275z"/>
		</g>
		<g>
			<path fill="#002060" d="M220.64,49.397l-3.419-5.663H206.43l1.882-3.187h6.995l-5.082-8.416l-10.352,17.266h-4.549l13.112-21.536
				c0.23-0.392,0.502-0.701,0.816-0.928c0.314-0.227,0.69-0.341,1.129-0.341c0.439,0,0.81,0.114,1.114,0.341
				c0.303,0.227,0.57,0.536,0.8,0.928l13.144,21.536H220.64z"/>
		</g>
		<g>
			<path fill="#002060" d="M231.587,32.709v16.688h-3.796V28.693c0-0.732,0.183-1.312,0.549-1.741
				c0.366-0.428,0.863-0.643,1.49-0.643c0.293,0,0.575,0.063,0.847,0.189c0.271,0.125,0.554,0.335,0.847,0.627l16.092,15.967V26.404
				h3.796v20.892c0,0.753-0.183,1.339-0.549,1.757c-0.366,0.418-0.842,0.627-1.427,0.627c-0.649,0-1.255-0.282-1.82-0.847
				L231.587,32.709z"/>
		</g>
	</g>
	<g>
		<g>
			<path fill="#002060" d="M32.565,16.345c0.048,1.416,0.357,2.815,0.905,4.088c1.199-0.373,2.461-0.578,3.76-0.612v-3.476H32.565z"
				/>
		</g>
		<g>
			<path fill="#002060" d="M33.816,21.16c0.819,1.562,2.009,2.878,3.414,3.775v-4.317C36.051,20.651,34.907,20.833,33.816,21.16z"/>
		</g>
		<g>
			<path fill="#002060" d="M37.23,11.306V6.989c-1.405,0.897-2.595,2.213-3.414,3.776C34.906,11.092,36.051,11.273,37.23,11.306z"/>
		</g>
		<g>
			<path fill="#002060" d="M33.47,11.492c-0.548,1.272-0.858,2.671-0.905,4.087h4.665v-3.476
				C35.931,12.07,34.669,11.865,33.47,11.492z"/>
		</g>
		<g>
			<path fill="#002060" d="M33.052,21.417c-0.719,0.268-1.392,0.599-2.011,0.986c1.341,1.366,3.075,2.28,4.94,2.619
				C34.785,24.075,33.775,22.835,33.052,21.417z"/>
		</g>
		<g>
			<path fill="#002060" d="M32.714,20.693c-0.575-1.356-0.899-2.844-0.947-4.348h-3.353c0.083,1.996,0.815,3.91,2.087,5.457
				C31.182,21.365,31.924,20.993,32.714,20.693z"/>
		</g>
		<g>
			<path fill="#002060" d="M35.98,6.903c-1.864,0.339-3.599,1.252-4.94,2.619c0.618,0.387,1.291,0.718,2.011,0.987
				C33.775,9.089,34.785,7.85,35.98,6.903z"/>
		</g>
		<g>
			<path fill="#002060" d="M30.5,10.122c-1.272,1.548-2.003,3.461-2.086,5.458h3.353c0.048-1.504,0.372-2.991,0.947-4.348
				C31.923,10.932,31.181,10.56,30.5,10.122z"/>
		</g>
		<g>
			<path fill="#002060" d="M37.996,20.619v4.316c1.405-0.897,2.595-2.212,3.414-3.775C40.319,20.833,39.175,20.651,37.996,20.619z"
				/>
		</g>
		<g>
			<path fill="#002060" d="M37.996,16.345v3.476c1.301,0.034,2.562,0.238,3.76,0.611c0.548-1.271,0.857-2.671,0.905-4.087H37.996z"
				/>
		</g>
		<g>
			<path fill="#002060" d="M42.66,15.58c-0.048-1.417-0.357-2.815-0.904-4.087c-1.198,0.373-2.459,0.578-3.76,0.611v3.476H42.66z"/>
		</g>
		<g>
			<path fill="#002060" d="M41.409,10.765c-0.818-1.563-2.009-2.878-3.414-3.775v4.316C39.175,11.273,40.319,11.092,41.409,10.765z"
				/>
		</g>
		<g>
			<path fill="#002060" d="M43.459,16.345c-0.048,1.503-0.372,2.99-0.947,4.347c0.791,0.3,1.532,0.671,2.213,1.11
				c1.272-1.547,2.004-3.46,2.087-5.457H43.459z"/>
		</g>
		<g>
			<path fill="#002060" d="M46.812,15.58c-0.083-1.997-0.815-3.91-2.086-5.457c-0.678,0.437-1.42,0.809-2.214,1.11
				c0.575,1.356,0.899,2.843,0.947,4.348H46.812z"/>
		</g>
		<g>
			<path fill="#002060" d="M39.245,25.022c1.863-0.338,3.598-1.253,4.94-2.619c-0.621-0.388-1.295-0.719-2.011-0.986
				C41.45,22.836,40.441,24.075,39.245,25.022z"/>
		</g>
		<g>
			<path fill="#002060" d="M42.175,10.508c0.719-0.269,1.392-0.599,2.011-0.987c-1.341-1.366-3.076-2.28-4.94-2.619
				C40.441,7.849,41.451,9.088,42.175,10.508z"/>
		</g>
	</g>
</g>
</svg>
